<?xml version="1.0" standalone="no"?>
<!DOCTYPE svg PUBLIC "-//W3C//DTD SVG 20010904//EN"
 "http://www.w3.org/TR/2001/REC-SVG-20010904/DTD/svg10.dtd">
<svg version="1.0" xmlns="http://www.w3.org/2000/svg"
 width="500.000000pt" height="500.000000pt" viewBox="0 0 500.000000 500.000000"
 preserveAspectRatio="xMidYMid meet">
<metadata>
Created by potrace 1.11, written by Peter Selinger 2001-2013
</metadata>
<g transform="translate(0.000000,500.000000) scale(0.100000,-0.100000)"
fill="#000000" stroke="none">
<path d="M2179 4990 c-8 -5 -26 -7 -41 -5 -16 3 -28 1 -28 -5 0 -6 -8 -10 -17
-9 -30 4 -123 -12 -123 -22 0 -5 -13 -6 -30 -2 -17 3 -30 1 -30 -4 0 -5 -6
-10 -12 -11 -52 -6 -147 -31 -179 -47 -16 -9 -31 -15 -34 -15 -23 -1 -65 -14
-65 -22 0 -5 -4 -7 -9 -3 -5 3 -13 0 -16 -6 -4 -5 -13 -8 -21 -5 -8 3 -14 2
-14 -3 0 -5 -20 -14 -45 -21 -25 -7 -45 -16 -45 -19 0 -4 -22 -15 -50 -26 -27
-11 -50 -22 -50 -25 0 -3 -23 -14 -51 -25 -28 -11 -58 -27 -67 -35 -9 -8 -30
-22 -46 -30 -57 -29 -66 -35 -66 -42 0 -5 -6 -8 -14 -8 -8 0 -16 -3 -18 -7 -5
-12 -66 -53 -78 -53 -5 0 -10 -4 -10 -10 0 -5 -6 -10 -13 -10 -7 0 -19 -9 -27
-20 -8 -11 -18 -20 -22 -20 -5 0 -23 -12 -41 -27 -53 -45 -337 -327 -337 -334
0 -4 -12 -21 -27 -37 -16 -16 -37 -41 -48 -56 -11 -14 -25 -32 -30 -39 -22
-26 -65 -97 -65 -106 0 -5 -3 -11 -8 -13 -11 -5 -82 -115 -82 -127 0 -6 -5
-11 -10 -11 -6 0 -9 -3 -8 -7 2 -11 -75 -167 -85 -171 -4 -2 -5 -8 -1 -13 3
-5 1 -9 -4 -9 -5 0 -15 -20 -22 -45 -7 -25 -17 -45 -22 -45 -5 0 -6 -4 -3 -10
3 -5 -1 -20 -9 -32 -8 -13 -18 -40 -21 -60 -4 -21 -11 -38 -16 -38 -4 0 -6 -9
-4 -20 2 -11 0 -20 -4 -20 -5 0 -15 -29 -22 -65 -7 -36 -17 -65 -22 -65 -4 0
-5 -9 -2 -20 3 -11 2 -20 -3 -20 -9 0 -17 -40 -29 -147 -3 -29 -9 -53 -13 -53
-4 0 -7 -15 -6 -32 2 -18 -1 -38 -5 -43 -8 -10 -5 -590 3 -655 2 -19 7 -41 11
-47 4 -7 7 -27 5 -45 -1 -19 2 -40 7 -48 8 -13 16 -57 16 -92 0 -10 4 -18 8
-18 4 0 8 -6 9 -12 0 -7 3 -22 5 -33 3 -11 10 -42 17 -70 6 -27 15 -55 21 -61
5 -7 9 -16 8 -20 -1 -5 3 -22 9 -37 7 -16 12 -33 12 -38 0 -5 7 -21 16 -34 9
-14 13 -25 9 -25 -4 0 -1 -10 7 -22 8 -13 18 -35 22 -50 3 -15 19 -50 35 -77
16 -27 27 -52 24 -55 -4 -3 -2 -6 4 -6 5 0 16 -18 23 -40 7 -22 17 -40 22 -40
5 0 6 -4 3 -10 -3 -5 -2 -10 3 -10 7 0 41 -60 43 -78 0 -4 7 -11 15 -15 8 -4
14 -14 14 -21 0 -8 7 -17 16 -20 8 -3 12 -10 9 -16 -3 -6 1 -13 9 -16 9 -3 16
-10 16 -15 0 -13 51 -91 72 -110 10 -9 18 -20 18 -25 0 -12 20 -33 233 -247
103 -103 193 -187 200 -187 7 0 18 -9 25 -20 7 -11 16 -20 22 -20 11 0 102
-60 112 -75 5 -7 8 -7 8 0 0 6 5 2 11 -8 5 -9 14 -17 20 -17 5 0 22 -8 37 -19
38 -26 86 -55 92 -56 10 -2 85 -40 90 -46 3 -3 26 -14 53 -24 26 -10 47 -21
47 -25 0 -4 11 -11 25 -14 13 -3 34 -10 47 -15 13 -5 26 -8 29 -7 3 0 13 -5
22 -13 10 -7 17 -10 17 -5 0 5 4 4 8 -1 7 -11 91 -40 104 -37 5 1 8 -3 8 -8 0
-6 6 -10 13 -9 6 1 19 0 27 -4 30 -11 105 -29 123 -28 9 0 17 -5 17 -10 0 -6
10 -9 23 -8 12 1 42 -3 67 -10 24 -7 59 -13 77 -13 18 0 33 -3 33 -7 0 -4 15
-9 33 -10 80 -6 663 -9 672 -3 5 4 21 7 35 7 14 0 30 3 35 7 6 3 28 5 49 4 21
-1 40 3 42 9 3 5 27 11 56 13 28 1 57 7 64 13 8 6 14 8 14 4 0 -4 6 -3 13 3 6
5 32 13 57 17 25 4 56 12 70 18 14 6 30 12 35 12 6 1 23 7 38 13 16 7 34 12
42 12 7 0 21 8 31 17 10 10 18 16 18 14 2 -7 111 31 117 41 3 5 8 9 10 8 5 -3
82 33 89 41 3 3 26 14 52 25 27 10 48 22 48 27 0 4 7 7 15 7 8 0 15 5 15 10 0
6 6 10 13 10 12 0 87 46 118 72 8 7 31 22 50 32 36 21 49 30 80 58 10 10 22
18 26 18 9 0 36 25 216 200 86 85 157 157 157 161 0 4 15 22 33 41 44 47 67
76 67 88 0 6 4 10 9 10 5 0 11 8 15 18 6 18 23 46 44 71 26 30 113 176 124
208 7 18 16 33 21 33 4 0 6 4 3 9 -4 5 -3 11 1 13 10 4 47 80 45 91 -1 4 2 7
7 7 5 0 12 11 15 25 3 13 11 37 18 52 6 15 12 30 13 33 0 3 6 14 12 25 6 11
14 37 18 58 4 20 11 37 17 37 5 0 6 4 3 10 -3 5 -1 19 6 32 14 25 40 125 40
151 0 9 4 17 8 17 5 0 12 24 16 53 4 28 11 77 16 107 5 30 11 66 12 80 1 14 6
30 10 36 3 6 5 152 2 325 -5 365 -5 379 -15 379 -4 0 -10 30 -13 67 -4 38 -10
69 -15 71 -5 1 -6 16 -4 32 2 17 0 30 -6 30 -6 0 -9 9 -7 20 2 11 0 20 -6 20
-5 0 -9 8 -9 18 0 10 -7 42 -15 72 -9 30 -16 61 -17 68 -1 6 -5 12 -8 12 -4 0
-10 13 -13 30 -4 16 -16 50 -27 75 -11 25 -18 50 -15 54 3 5 2 11 -2 13 -10 4
-73 133 -73 148 0 5 -5 10 -11 10 -5 0 -7 5 -4 10 3 6 2 10 -3 10 -5 0 -15 18
-22 40 -7 22 -18 40 -23 40 -6 0 -8 3 -4 6 3 3 1 11 -4 18 -5 6 -25 36 -44 66
-19 30 -38 60 -43 65 -4 6 -17 26 -28 45 -10 19 -25 39 -31 43 -7 4 -13 13
-13 19 0 6 -6 18 -14 27 -8 9 -30 34 -48 56 -55 67 -397 405 -410 405 -6 0
-18 7 -27 15 -50 46 -61 55 -66 55 -3 0 -55 33 -116 73 -62 39 -115 72 -118
72 -3 1 -22 9 -41 20 -19 11 -38 18 -42 17 -5 -1 -8 3 -8 8 0 5 -3 9 -7 8 -9
-2 -85 34 -93 43 -3 4 -24 12 -47 19 -24 7 -43 17 -43 22 0 5 -5 6 -10 3 -6
-4 -16 -2 -23 3 -7 5 -30 15 -52 22 -22 7 -44 16 -49 20 -5 5 -15 6 -22 3 -8
-3 -14 0 -14 7 0 7 -8 9 -20 5 -11 -3 -20 -2 -20 3 0 9 -47 22 -82 23 -10 0
-20 4 -23 9 -3 5 -12 7 -20 3 -8 -3 -15 -1 -15 5 0 5 -23 13 -52 16 -28 4 -56
10 -61 13 -6 3 -28 7 -51 9 -69 5 -101 10 -111 16 -16 10 -620 7 -636 -2z"/>
</g>
</svg>
